<?xml version="1.0" encoding="iso-8859-1"?>
<!-- Generator: Adobe Illustrator 19.0.0, SVG Export Plug-In . SVG Version: 6.00 Build 0)  -->
<svg version="1.1" id="Capa_1" xmlns="http://www.w3.org/2000/svg" xmlns:xlink="http://www.w3.org/1999/xlink" x="0px" y="0px"
	 viewBox="0 0 512.084 512.084" style="enable-background:new 0 0 512.084 512.084;" xml:space="preserve">
<g transform="translate(0 -1)">
	<g transform="translate(1 1)">
		<path style="fill:#6A1B9A;" d="M476.909,469.418h-18.005l23.381-32.768c2.637-3.773,3.679-8.434,2.901-12.971
			c-0.857-4.534-3.501-8.532-7.339-11.093l-73.984-49.323c14.952-15.86,22.835-37.105,21.845-58.88
			c-0.088-16.434-3.665-32.661-10.496-47.608l0.512,0.846l45.056-30.037c6.954-4.641,9.52-13.638,6.059-21.248
			c-5.888-12.971-11.804-25.97-17.749-38.997c-5.973-13.141-11.975-26.34-18.005-39.595c-1.877-4.181-3.755-8.277-5.632-12.373
			c-2.941-7.66-6.361-15.127-10.24-22.357c-2.975-4.907-6.96-9.125-11.691-12.374c-8.946-6.356-20.485-7.798-30.72-3.84
			c-17.489,8.981-24.522,30.344-15.787,47.957c6.563,18.432,26.671,28.22,45.227,22.016l27.563,60.501l-31.744,21.163l0.069,0.114
			c-31.525-37.768-76.679-61.572-125.653-66.243c-0.356-2.861-0.542-5.74-0.556-8.623c-0.138-10.046,1.361-20.047,4.437-29.611
			h-0.119c26.887-10.309,42.593-38.333,37.351-66.648C308.348,29.11,283.65,8.566,254.854,8.566
			c-28.796,0-53.493,20.545-58.735,48.859s10.463,56.339,37.351,66.648h-0.119c3.076,9.564,4.575,19.565,4.437,29.611
			c-0.014,2.885-0.199,5.766-0.556,8.628c-48.947,4.845-94.02,28.757-125.478,66.569l0.27-0.445l-31.744-21.163l27.563-60.501
			c18.556,6.204,38.663-3.584,45.227-22.016c8.735-17.613,1.703-38.977-15.787-47.957c-10.235-3.958-21.774-2.516-30.72,3.84
			c-4.731,3.248-8.716,7.466-11.691,12.373c-3.879,7.23-7.299,14.697-10.24,22.357c-1.877,4.096-3.755,8.192-5.632,12.373
			c-6.059,13.227-12.06,26.425-18.005,39.595c-5.973,13.056-11.89,26.055-17.749,38.997c-3.461,7.61-0.896,16.607,6.059,21.248
			l45.056,30.037l0.606-1.002c-6.892,14.986-10.502,31.271-10.59,47.765c-0.989,21.775,6.893,43.02,21.845,58.88l-73.984,49.323
			c-3.837,2.562-6.482,6.56-7.339,11.093c-0.778,4.537,0.265,9.198,2.901,12.971l23.381,32.768H33.175
			c-9.426,0-17.067,7.641-17.067,17.067s7.641,17.067,17.067,17.067h51.285c1.532-0.012,3.055-0.241,4.523-0.683
			c0.325-0.076,0.641-0.19,0.939-0.341c1.507-0.491,2.941-1.18,4.267-2.048c-0.001-0.023,0.008-0.045,0.024-0.061
			c0.016-0.016,0.038-0.025,0.061-0.025c0.303-0.234,0.588-0.491,0.853-0.768c0.512-0.427,1.024-0.853,1.536-1.365
			c0.362-0.38,0.704-0.779,1.024-1.195c0.341-0.427,0.683-0.853,1.024-1.365c0.256-0.427,0.512-0.939,0.768-1.451
			c0.256-0.512,0.512-0.939,0.768-1.451c0.182-0.529,0.325-1.071,0.427-1.621c0.182-0.5,0.325-1.014,0.427-1.536
			c0.127-0.677,0.213-1.361,0.256-2.048c0-0.341,0.085-0.683,0.085-1.109v-0.171c-0.038-0.744-0.124-1.485-0.256-2.219
			c-0.015-0.403-0.072-0.804-0.171-1.195c-0.12-0.583-0.291-1.154-0.512-1.707c-0.171-0.512-0.256-1.024-0.427-1.451l-0.768-1.28
			c-0.262-0.596-0.576-1.167-0.939-1.707c0-0.085-0.085-0.085-0.085-0.171l-32.427-45.397l62.123-41.472
			c2.699-1.721,4.811-4.22,6.059-7.168c14.758,6.626,30.337,11.245,46.322,13.736c-0.083,23.033-2.284,47.698-10.653,56.067
			c-17.067,17.067-8.533,51.2,85.333,51.2h1.451c93.867,0,102.4-34.133,85.333-51.2c-4.5-5.409-7.383-11.978-8.32-18.951
			c-2.325-12.313-3.302-24.843-2.915-37.368l0.568-0.001c15.486-2.518,30.575-7.051,44.885-13.483
			c1.247,2.948,3.36,5.447,6.059,7.168l62.123,41.472l-32.427,45.397c0,0.085-0.085,0.085-0.085,0.171
			c-0.363,0.54-0.677,1.111-0.939,1.707l-0.768,1.28c-0.171,0.427-0.256,0.939-0.427,1.451c-0.221,0.553-0.392,1.124-0.512,1.707
			c-0.099,0.391-0.156,0.792-0.171,1.195c-0.132,0.733-0.218,1.474-0.256,2.219v0.171c0,0.427,0.085,0.768,0.085,1.109
			c0.043,0.687,0.129,1.371,0.256,2.048c0.102,0.522,0.245,1.036,0.427,1.536c0.102,0.55,0.245,1.092,0.427,1.621
			c0.256,0.512,0.512,0.939,0.768,1.451c0.256,0.512,0.512,1.024,0.768,1.451c0.341,0.512,0.683,0.939,1.024,1.365
			c0.32,0.416,0.662,0.815,1.024,1.195c0.512,0.512,1.024,0.939,1.536,1.365c0.265,0.277,0.55,0.534,0.853,0.768
			c0.023-0.001,0.045,0.008,0.061,0.024c0.016,0.016,0.025,0.038,0.024,0.061c1.325,0.868,2.76,1.557,4.267,2.048
			c0.298,0.151,0.613,0.265,0.939,0.341c1.467,0.441,2.99,0.671,4.523,0.683h51.285c9.426,0,17.067-7.641,17.067-17.067
			S486.334,469.418,476.909,469.418z"/>
		<g>
			<ellipse style="fill:#9D27B0;" cx="255.042" cy="298.751" rx="170.667" ry="102.4"/>
			<path style="fill:#9D27B0;" d="M297.521,204.884c-16.825-11.481-26.51-30.851-25.6-51.2c-0.138-10.046,1.361-20.047,4.437-29.611
				H233.35c3.076,9.564,4.575,19.565,4.437,29.611c0.91,20.349-8.775,39.719-25.6,51.2H297.521z"/>
		</g>
		<circle style="fill:#E6E7E8;" cx="254.854" cy="68.351" r="59.733"/>
		<circle style="fill:#607D8B;" cx="254.854" cy="68.351" r="25.6"/>
		<path d="M374.509,320.17c0,24.747-16.213,33.707-41.813,36.864c-0.315-0.014-0.631,0.015-0.939,0.085
			c0.071-0.68,0.1-1.364,0.085-2.048c0-31.147-34.389-56.32-76.8-56.32c-40.875,0-74.24,23.381-76.629,52.907v0.427
			c-0.085,0.939-0.171,2.048-0.171,2.987c-0.014,0.684,0.014,1.368,0.085,2.048c-26.112-3.072-42.752-11.947-42.752-36.949
			c0-44.8,53.504-81.152,119.467-81.152S374.509,275.37,374.509,320.17z"/>
		<g>
			<path style="fill:#9D27B0;" d="M112.023,228.436l-31.744-21.163l27.563-60.501c18.556,6.204,38.663-3.584,45.227-22.016
				c8.735-17.613,1.703-38.977-15.787-47.957c-10.235-3.958-21.774-2.516-30.72,3.84c-4.731,3.248-8.716,7.466-11.691,12.373
				c-3.879,7.23-7.299,14.698-10.24,22.357c-1.877,4.096-3.755,8.192-5.632,12.373c-6.059,13.227-12.06,26.425-18.005,39.595
				c-5.973,13.056-11.89,26.055-17.749,38.997c-3.461,7.61-0.896,16.608,6.059,21.248l45.056,30.037"/>
			<path style="fill:#9D27B0;" d="M415.725,257.62l45.056-30.037c6.954-4.64,9.52-13.638,6.059-21.248
				c-5.888-12.971-11.804-25.97-17.749-38.997c-5.973-13.141-11.975-26.34-18.005-39.595c-1.877-4.181-3.755-8.277-5.632-12.373
				c-2.941-7.66-6.361-15.127-10.24-22.357c-2.975-4.907-6.96-9.125-11.691-12.373c-8.946-6.356-20.485-7.798-30.72-3.84
				c-17.489,8.981-24.522,30.344-15.787,47.957c6.563,18.432,26.671,28.22,45.227,22.016l27.563,60.501l-31.744,21.163"/>
		</g>
		<g>
			<path style="fill:#6A1B9A;" d="M134.039,382.548c-1.247,2.948-3.36,5.447-6.059,7.168l-62.123,41.472l32.427,45.397
				c0,0.085,0.085,0.085,0.085,0.171c0.363,0.54,0.677,1.111,0.939,1.707l0.768,1.28c0.171,0.427,0.256,0.939,0.427,1.451
				c0.221,0.553,0.392,1.124,0.512,1.707c0.099,0.391,0.156,0.792,0.171,1.195c0.132,0.733,0.218,1.474,0.256,2.219v0.171
				c0,0.427-0.085,0.768-0.085,1.109c-0.043,0.687-0.129,1.371-0.256,2.048c-0.103,0.522-0.245,1.036-0.427,1.536
				c-0.102,0.55-0.244,1.092-0.427,1.621c-0.256,0.512-0.512,0.939-0.768,1.451c-0.256,0.512-0.512,1.024-0.768,1.451
				c-0.341,0.512-0.683,0.939-1.024,1.365c-0.32,0.416-0.662,0.815-1.024,1.195c-0.512,0.512-1.024,0.939-1.536,1.365
				c-0.265,0.277-0.55,0.534-0.853,0.768c-0.023,0-0.045,0.008-0.061,0.025c-0.016,0.016-0.025,0.038-0.024,0.061
				c-1.325,0.868-2.76,1.557-4.267,2.048c-0.298,0.151-0.613,0.265-0.939,0.341c-1.467,0.441-2.99,0.671-4.523,0.683H33.175
				c-9.426,0-17.067-7.641-17.067-17.067s7.641-17.067,17.067-17.067h18.005L27.799,436.65c-2.637-3.773-3.679-8.434-2.901-12.971
				c0.857-4.534,3.501-8.532,7.339-11.093l73.984-49.323C114.22,371.358,123.652,377.898,134.039,382.548z"/>
			<path style="fill:#6A1B9A;" d="M493.975,486.484c-0.028,9.414-7.653,17.039-17.067,17.067h-51.285
				c-1.532-0.012-3.055-0.241-4.523-0.683c-0.325-0.076-0.641-0.19-0.939-0.341c-1.506-0.491-2.941-1.18-4.267-2.048
				c0.001-0.023-0.008-0.045-0.024-0.061c-0.016-0.016-0.038-0.025-0.061-0.024c-0.303-0.234-0.588-0.491-0.853-0.768
				c-0.512-0.427-1.024-0.853-1.536-1.365c-0.362-0.38-0.704-0.779-1.024-1.195c-0.341-0.427-0.683-0.853-1.024-1.365
				c-0.256-0.427-0.512-0.939-0.768-1.451c-0.256-0.512-0.512-0.939-0.768-1.451c-0.182-0.529-0.325-1.071-0.427-1.621
				c-0.182-0.5-0.324-1.014-0.427-1.536c-0.127-0.677-0.213-1.361-0.256-2.048c0-0.341-0.085-0.683-0.085-1.109v-0.171
				c0.038-0.744,0.124-1.485,0.256-2.219c0.015-0.403,0.072-0.804,0.171-1.195c0.12-0.583,0.291-1.154,0.512-1.707
				c0.171-0.512,0.256-1.024,0.427-1.451l0.768-1.28c0.262-0.596,0.576-1.167,0.939-1.707c0-0.085,0.085-0.085,0.085-0.171
				l32.427-45.397l-62.123-41.472c-2.699-1.721-4.811-4.22-6.059-7.168c10.363-4.693,19.788-11.228,27.819-19.285l73.984,49.323
				c3.837,2.562,6.482,6.56,7.339,11.093c0.778,4.537-0.265,9.198-2.901,12.971l-23.381,32.768h18.005
				C486.323,469.445,493.948,477.07,493.975,486.484z"/>
		</g>
		<path style="fill:#AD1457;" d="M256.493,503.551h-1.451c-93.867,0-102.4-34.133-85.333-51.2
			c14.08-14.08,10.752-74.325,9.131-95.232c-0.171-2.133-0.256-3.84-0.427-5.035v-0.427c2.389-29.525,35.755-52.907,76.629-52.907
			c42.411,0,76.8,25.173,76.8,56.32c0.014,0.684-0.014,1.368-0.085,2.048c-0.267,1.747-0.329,3.519-0.185,5.28
			c-0.148,8.827-0.652,17.624-0.881,26.445c-0.793,14.911,0.152,29.863,2.815,44.556c0.936,6.974,3.82,13.542,8.32,18.951
			C358.893,469.418,350.359,503.551,256.493,503.551z"/>
		<path style="fill:#E91E63;" d="M256.493,503.551h-1.451c-93.867,0-102.4-27.022-85.333-40.533
			c14.08-11.147,10.752-58.841,9.131-75.392c-0.171-1.689-0.256-3.04-0.427-3.985v-0.338c2.389-23.375,35.755-41.885,76.629-41.885
			c42.411,0,76.8,19.929,76.8,44.587c0.014,0.542-0.014,1.084-0.085,1.621c-0.406,0.106-0.179,3.841-0.185,4.18
			c-0.148,6.988-0.652,13.952-0.881,20.936c-0.79,11.832,0.158,23.716,2.815,35.273c1.074,5.77,3.994,11.036,8.32,15.002
			C358.893,476.529,350.359,503.551,256.493,503.551z"/>
		<g>
			<path style="fill:#C03A2B;" d="M255.042,435.284c-2.263,0.001-4.434-0.898-6.035-2.499c-1.6-1.6-2.499-3.771-2.499-6.035v-85.333
				c0-4.713,3.821-8.533,8.533-8.533s8.533,3.82,8.533,8.533v85.333c0.001,2.263-0.898,4.434-2.499,6.035
				C259.476,434.386,257.306,435.285,255.042,435.284z"/>
			<path style="fill:#C03A2B;" d="M255.042,477.951c-2.263,0.001-4.434-0.898-6.035-2.499c-1.6-1.6-2.499-3.771-2.499-6.035v-8.533
				c0-4.713,3.821-8.533,8.533-8.533s8.533,3.82,8.533,8.533v8.533c0.001,2.263-0.898,4.434-2.499,6.035
				S257.306,477.952,255.042,477.951z"/>
		</g>
	</g>
	<g>
		<path d="M289.984,69.351c0-18.851-15.282-34.133-34.133-34.133S221.717,50.5,221.717,69.351s15.282,34.133,34.133,34.133
			C274.693,103.464,289.964,88.194,289.984,69.351z M238.784,69.351c0-9.426,7.641-17.067,17.067-17.067
			c9.426,0,17.067,7.641,17.067,17.067s-7.641,17.067-17.067,17.067C246.429,86.407,238.795,78.772,238.784,69.351z"/>
		<path d="M256.042,333.884c-2.263-0.001-4.434,0.898-6.035,2.499c-1.6,1.6-2.499,3.771-2.499,6.035v85.333
			c0,4.713,3.821,8.533,8.533,8.533s8.533-3.82,8.533-8.533v-85.333c0.001-2.263-0.898-4.434-2.499-6.035
			C260.476,334.783,258.306,333.884,256.042,333.884z"/>
		<path d="M256.042,453.351c-2.263-0.001-4.434,0.898-6.035,2.499c-1.6,1.6-2.499,3.771-2.499,6.035v8.533
			c0,4.713,3.821,8.533,8.533,8.533s8.533-3.821,8.533-8.533v-8.533c0.001-2.263-0.898-4.434-2.499-6.035
			C260.476,454.249,258.306,453.35,256.042,453.351z"/>
		<path d="M405.309,473.501c-0.402,0.635-0.767,1.293-1.092,1.971c-0.217,0.371-0.5,0.837-0.5,0.837
			c-0.232,0.377-0.433,0.773-0.6,1.183c-0.15,0.367-0.583,1.754-0.683,2.138c-0.351,0.892-0.608,1.818-0.767,2.762
			c-0.145,0.635-0.239,1.28-0.283,1.929c-0.176,1.045-0.268,2.102-0.275,3.162c0,0.325,0.05,0.783,0.083,1.108
			c0,0.233,0.075,1.129,0.092,1.363c0.034,0.693,0.126,1.381,0.275,2.058c0.139,0.784,0.331,1.558,0.575,2.317
			c0.158,0.704,0.367,1.45,0.583,2.108c0.139,0.421,0.309,0.832,0.508,1.229l0.717,1.325c0.399,0.838,0.844,1.653,1.333,2.442
			c0.467,0.704,0.933,1.3,1.567,2.1c0.491,0.621,1.014,1.216,1.567,1.783c0.608,0.604,1.2,1.125,1.808,1.629
			c0.292,0.292,0.608,0.579,0.958,0.87c0.311,0.28,0.643,0.536,0.992,0.767c1.805,1.19,3.75,2.153,5.792,2.867
			c0.553,0.251,1.128,0.452,1.717,0.6c2.283,0.681,4.651,1.029,7.033,1.034h51.2c14.138,0,25.6-11.462,25.6-25.6
			s-11.462-25.6-25.6-25.6h-1.434l13.783-19.312c3.943-5.668,5.492-12.664,4.308-19.467c-1.294-6.785-5.249-12.77-10.983-16.621
			l-66.127-44.083c12.167-16.467,18.432-36.553,17.785-57.017c-0.079-14.836-2.866-29.533-8.223-43.369l39.498-26.331
			c10.39-6.994,14.229-20.457,9.092-31.879l-2.367-5.217c-5.109-11.242-10.236-22.503-15.383-33.783l-5.692-12.546
			c-4.092-9.004-8.192-18.038-12.3-27.008c-1.883-4.204-3.767-8.321-5.642-12.404c-1.025-2.254-1.975-4.583-2.933-6.925
			c-2.149-5.661-4.761-11.135-7.808-16.367c-3.601-5.953-8.438-11.063-14.183-14.987c-11.328-8.015-25.941-9.754-38.833-4.621
			c-21.82,10.838-30.868,37.207-20.3,59.158c7.592,19.571,27.52,31.472,48.35,28.875l21.517,47.221l-19.588,13.055
			c-31.005-34.199-73.133-56.295-118.895-62.358c-0.009-0.429-0.1-0.777-0.1-1.214c-0.063-7.912,0.949-15.796,3.009-23.435
			c29.109-13.436,44.947-45.317,38.067-76.631C315.648,23.305,287.906,0.998,255.845,1c-32.06,0.002-59.799,22.314-66.674,53.628
			s8.968,63.194,38.079,76.625c2.055,7.639,3.064,15.521,3,23.431c0,0.447-0.094,0.804-0.102,1.244
			c-45.59,6.21-87.531,28.293-118.45,62.367L92.05,205.201l21.517-47.221c20.848,2.605,40.792-9.319,48.367-28.917
			c10.548-21.955,1.481-48.31-20.342-59.129c-12.894-5.12-27.503-3.372-38.825,4.646c-5.731,3.915-10.556,9.013-14.15,14.95
			c-3.055,5.239-5.672,10.722-7.825,16.392c-0.958,2.342-1.908,4.671-2.917,6.883c-1.892,4.125-3.775,8.242-5.633,12.383
			c-4.133,9.033-8.242,18.057-12.325,27.071l-5.683,12.529c-5.175,11.308-10.306,22.575-15.392,33.8l-2.35,5.175
			c-5.158,11.43-1.324,24.914,9.075,31.921l39.529,26.351c-5.374,13.825-8.171,28.517-8.254,43.349
			c-0.733,20.489,5.433,40.632,17.51,57.2l-65.86,43.904c-5.769,3.83-9.735,9.84-10.987,16.651s0.316,13.838,4.346,19.47
			l13.759,19.275h-1.434c-14.138,0-25.6,11.462-25.6,25.6s11.462,25.6,25.6,25.6h51.283c2.216,0.001,4.421-0.311,6.55-0.925
			c0.722-0.174,1.427-0.411,2.108-0.708c2.045-0.712,3.993-1.674,5.8-2.867c0.349-0.231,0.68-0.487,0.992-0.767
			c0.35-0.292,0.667-0.579,0.958-0.87c0.608-0.504,1.208-1.029,1.833-1.654c0.603-0.625,1.174-1.282,1.708-1.967
			c0.574-0.714,1.111-1.456,1.608-2.225c0.383-0.625,0.767-1.362,1.333-2.483c0.042-0.079,0.467-0.867,0.508-0.95
			c0.199-0.397,0.369-0.807,0.508-1.229c0.208-0.654,0.417-1.396,0.575-2.096c0.184-0.515,0.326-1.045,0.425-1.583
			c0.226-0.92,0.371-1.859,0.433-2.804l0.075-0.879c0.033-0.326,0.1-1.439,0.1-1.764c-0.018-1.02-0.113-2.036-0.283-3.042
			c-0.032-0.521-0.107-1.038-0.225-1.546c-0.174-1.127-0.47-2.233-0.883-3.296c-0.1-0.383-0.467-1.571-0.617-1.938
			c-0.125-0.308-0.708-1.329-1.083-1.979c-0.329-0.692-0.7-1.364-1.108-2.012c-0.166-0.302-0.349-0.595-0.55-0.875l-27.3-38.229
			l54.642-36.479c1.62-1.099,3.1-2.391,4.407-3.847c11.243,4.47,22.878,7.883,34.754,10.195
			c-0.595,20.996-3.134,38.133-8.053,43.052c-8.964,8.123-11.935,20.962-7.45,32.196c6.341,15.312,28.633,33.57,98.816,33.57
			c0.259,0,0.477-0.125,0.729-0.147c0.253,0.022,0.47,0.147,0.729,0.147c70.183,0,92.475-18.258,98.817-33.571
			c4.485-11.235,1.514-24.073-7.45-32.196c-4.939-4.939-7.477-22.214-8.057-43.349c11.351-2.288,22.464-5.629,33.196-9.977
			c1.286,1.45,2.748,2.734,4.351,3.823l54.8,36.583l-27.3,38.229C405.658,472.906,405.474,473.199,405.309,473.501z
			 M100.692,480.105l-2.108,1.55l-3.933,1.434L100.692,480.105z M435.542,215.372c3.483-2.322,4.767-6.828,3.033-10.638
			l-27.567-60.5c-1.912-4.184-6.792-6.103-11.042-4.342c-14.209,4.354-29.306-3.374-34.083-17.446
			c-6.866-13.274-1.883-29.602,11.225-36.779c7.577-2.808,16.054-1.673,22.625,3.029c3.737,2.571,6.88,5.913,9.217,9.8
			c2.551,4.451,4.741,9.099,6.55,13.9c1.033,2.533,2.075,5.054,3.191,7.533c1.875,4.075,3.742,8.15,5.633,12.367
			c4.125,9.013,8.225,18.018,12.3,27.017l5.708,12.575c5.167,11.296,10.289,22.549,15.367,33.758l2.392,5.258
			c1.697,3.797,0.412,8.263-3.042,10.579l-37.245,24.829c-2.675-5.013-5.641-9.865-8.883-14.531L435.542,215.372z M204.65,69.351
			c0-28.277,22.923-51.2,51.2-51.2s51.2,22.923,51.2,51.2s-22.923,51.2-51.2,51.2C227.586,120.52,204.681,97.615,204.65,69.351z
			 M55.034,221.484c-3.464-2.329-4.742-6.817-3.025-10.621l2.375-5.217c5.092-11.225,10.217-22.483,15.375-33.775l5.7-12.558
			c4.083-8.987,8.192-18.014,12.325-27.079c1.867-4.154,3.733-8.229,5.625-12.346c1.1-2.437,2.142-4.958,3.175-7.492
			c1.812-4.81,4.008-9.467,6.566-13.925c2.329-3.872,5.461-7.201,9.183-9.762c6.568-4.701,15.037-5.845,22.617-3.054
			c13.112,7.158,18.114,23.473,11.267,36.75c-4.761,14.097-19.874,21.847-34.1,17.487c-4.249-1.748-9.121,0.167-11.042,4.342
			l-27.567,60.5c-1.734,3.81-0.449,8.315,3.033,10.638l24.673,16.445c-3.245,4.664-6.214,9.514-8.893,14.525L55.034,221.484z
			 M227.26,173.618c-3.139,10.103-9.585,18.857-18.301,24.854c-2.654,1.506-4.302,4.316-4.32,7.368
			c-0.019,3.052,1.594,5.881,4.23,7.42c2.636,1.539,5.892,1.553,8.541,0.037c19.527-12.969,30.866-35.191,29.908-58.612
			c0.01-5.985-0.457-11.961-1.394-17.872c6.576,1.074,13.283,1.074,19.859-0.001c-0.94,5.911-1.408,11.888-1.398,17.873
			c-0.958,23.422,10.381,45.644,29.908,58.612c1.276,0.731,2.721,1.116,4.192,1.117c3.853-0.005,7.227-2.589,8.236-6.308
			c1.009-3.719-0.596-7.653-3.919-9.605c-8.756-6.005-15.229-14.79-18.371-24.932c75.88,13.125,133.746,69.162,133.746,131.816
			c0,43.468-24.679,69.445-77.407,81.209c0.131-6.978,0.43-14.092,0.901-21.131c19.892-3.498,42.373-12.843,42.373-44.295
			c0-49.45-57.417-89.683-128-89.683s-128,40.233-128,89.683c0,31.991,23.411,41.162,43.849,44.51
			c0.47,7.071,0.768,14.216,0.895,21.219c-53.728-11.695-78.878-37.768-78.878-81.512C93.909,243.007,151.59,187.002,227.26,173.618
			z M171.513,347.637c-0.084,0.195-0.23,0.355-0.3,0.557c-21.442-4.363-26.105-13.72-26.105-27.027
			c0-40.042,49.766-72.617,110.933-72.617s110.933,32.575,110.933,72.617c0,13.074-4.435,22.332-24.773,26.794
			c-0.479-1.212-1.234-2.295-2.204-3.165c-7.048-30.395-41.97-53.579-83.957-53.579
			C212.757,291.218,176.976,315.857,171.513,347.637z M62.117,425.093c-1.919,1.284-3.236,3.29-3.651,5.562
			c-0.415,2.271,0.109,4.614,1.451,6.493l32.125,44.983c0.142,0.254,0.283,0.5,0.442,0.729c0.153,0.358,0.331,0.705,0.533,1.037
			l0.1-0.05c0.142,0.363,0.475,1.075,0.533,1.25c0,0.382,0.025,0.763,0.075,1.142c0.009,0.067,0.183,0.817,0.192,0.883
			c-0.033,0.313-0.092,1.087-0.092,1.434c-0.067,0.258-0.217,0.721-0.258,0.962c-0.092,0.284-0.151,0.578-0.175,0.875
			c-0.067,0.125-0.525,0.992-0.583,1.117l-1.15,1.692c-0.317,0.317-0.633,0.575-1.475,1.346v0.004
			c-0.622,0.364-1.281,0.661-1.967,0.883c-0.225,0.075-0.45,0.158-0.667,0.254c-0.705,0.214-1.438,0.324-2.175,0.329h-51.2
			c-4.713,0-8.533-3.82-8.533-8.533s3.821-8.533,8.533-8.533h18.008c3.195-0.002,6.122-1.788,7.585-4.628
			c1.463-2.84,1.218-6.26-0.635-8.863l-23.358-32.73c-1.316-1.884-1.851-4.205-1.492-6.475c0.436-2.274,1.762-4.279,3.683-5.571
			l68.261-45.506c4.611,3.966,9.573,7.505,14.824,10.573L62.117,425.093z M340.55,472.98c-4.608,11.138-28.85,23.038-83.05,23.038
			c-0.259,0-0.477,0.125-0.729,0.147c-0.253-0.022-0.47-0.147-0.729-0.147c-54.2,0-78.442-11.9-83.05-23.038
			c-1.612-4.873-0.132-10.238,3.75-13.596c18.004-18.004,13.083-86.755,11.26-106.459c2.325-24.879,31.91-44.64,68.04-44.64
			c37.642,0,68.267,21.433,68.267,47.775c0,0.321,0.017,0.675-0.017,1.004c0.094,1.023,0.153,2.048,0.175,3.075
			c0.014,0.056,0.052,0.098,0.067,0.154c0.098,0.268,0.21,0.53,0.335,0.786c-1.95,26.073-4.096,82.278,11.932,98.306
			C340.682,462.742,342.162,468.107,340.55,472.98z M418.376,485.738l0.325-0.908l0.367-0.933c0.2-0.333,0.592-1.05,0.75-1.408
			c0.083-0.129,0.167-0.258,0.242-0.387l32.108-44.954c1.342-1.879,1.865-4.221,1.451-6.493c-0.415-2.271-1.732-4.278-3.651-5.562
			l-59.145-39.48c5.226-3.093,10.165-6.646,14.758-10.618l68.528,45.685c1.888,1.254,3.203,3.204,3.658,5.425
			c0.404,2.299-0.11,4.665-1.434,6.588l-23.383,32.767c-1.853,2.603-2.098,6.022-0.635,8.863c1.463,2.84,4.39,4.626,7.585,4.628
			h18.008c4.713,0,8.533,3.82,8.533,8.533s-3.821,8.533-8.533,8.533h-51.283c-0.703-0.016-1.401-0.125-2.075-0.325
			c-0.225-0.096-0.458-0.183-0.683-0.258c-0.638-0.21-1.255-0.48-1.842-0.808c-0.203-0.209-0.417-0.406-0.642-0.592
			c-0.5-0.397-0.955-0.847-1.358-1.342l-1.233-2.1c-0.079-0.403-0.182-0.801-0.308-1.192l-0.225-1.171
			c0.009-0.417,0.009-0.996-0.017-1.233C418.324,486.582,418.368,486.161,418.376,485.738z"/>
	</g>
</g>
<g>
</g>
<g>
</g>
<g>
</g>
<g>
</g>
<g>
</g>
<g>
</g>
<g>
</g>
<g>
</g>
<g>
</g>
<g>
</g>
<g>
</g>
<g>
</g>
<g>
</g>
<g>
</g>
<g>
</g>
</svg>
